<svg width="433.79999999999995" height="221.09334167980515" viewBox="0 0 349.99999999999994 178.3832862792342" class="looka-1j8o68f"><defs id="SvgjsDefs1013"></defs><g id="SvgjsG1014" featurekey="symbolFeature-0" transform="matrix(1.531523583899793,0,0,1.531523583899793,91.35582374952897,-30.982627924435707)" fill="#0a0a0a"><g xmlns="http://www.w3.org/2000/svg" fill=""><path d="M54.63 20.23q12.82.01 22.8 1.6a3.3 3.27 74.7 0 1 2.05 1.18q6.13 7.59 8.97 15.59.72 2.02 1.55.04.59-1.41 1.74-2.45a1.19 1.17 27.4 0 1 .94-.29c2.04.28 7.09 1.37 7.62 3.72a.79.78-8.8 0 1-.71.96l-10.89.78a1.65 1.63-12.8 0 1-1.65-1.03q-3.21-8.17-8.16-14.83c-.94-1.27-2.79-1.32-4.36-1.46q-9.94-.94-19.9-.95T34.72 24c-1.56.14-3.41.19-4.36 1.46q-4.96 6.65-8.18 14.82a1.65 1.63 12.9 0 1-1.65 1.02l-10.89-.79a.79.78 8.9 0 1-.71-.96c.53-2.35 5.59-3.44 7.63-3.71a1.19 1.17-27.3 0 1 .94.29q1.14 1.04 1.73 2.45.83 1.98 1.55-.04 2.85-7.99 9-15.57a3.3 3.27-74.6 0 1 2.05-1.18q9.98-1.57 22.8-1.56"></path><path d="M54.62 24.56q10.2 0 21.97 1.19a2.09 2.06-14.1 0 1 1.49.88q4.44 6.32 7.42 13.61a.27.26-8.1 0 1-.27.36q-15.25-1.67-30.61-1.67-15.36.01-30.6 1.69a.27.26 8.1 0 1-.27-.37q2.98-7.29 7.41-13.61a2.09 2.06 14.1 0 1 1.5-.88q11.76-1.19 21.96-1.2"></path><path d="M54.63 40.56q14.06.02 29.67 1.89 2.66.32.23 1.43-4.47 2.04-7.91 5.04-2.29 1.99.51.8 3.17-1.35 8.72-4.25c.92-.48 1.17-1.04 1.29-2.05a.66.66 0 0 1 .94-.51q5.39 2.6 10.13 6.64c1.55 1.31 1.9 2.63 1.9 4.77q0 12.12-.08 24.4a2.45 2.45 0 0 1-2.45 2.44H85.72q-.39 0-.71-.22-.76-.51-1.19-1.31-.3-.57-.94-.57l-28.32-.02-28.32-.09q-.65 0-.95.57-.43.8-1.2 1.3-.32.22-.71.22L11.52 81a2.45 2.45 0 0 1-2.44-2.45q-.03-12.28.02-24.4c0-2.14.36-3.46 1.91-4.77q4.76-4.02 10.16-6.6a.66.66 0 0 1 .94.52c.11 1.01.36 1.57 1.28 2.05q5.54 2.92 8.7 4.28 2.8 1.21.52-.79-3.43-3.02-7.9-5.07-2.42-1.12.24-1.43 15.62-1.81 29.68-1.78m36.2 13.8q-1.48 0-.92-1.37 2.05-4.95-1.85-7.37-.03-.01-.2-.01a.13.04 47.6 0 0 .07.16c6.36 5.58-5.65 14.19-9.83 16.87q-1.81 1.16.33.88c6.41-.86 13.82-1.41 17.91-3.93q.49-.3.49-.86v-3.79a.59.58 0 0 0-.59-.58zm-71.9-.19-6.06.44q-.6.04-.56.65l.26 3.66q.04.53.51.79 2.96 1.59 6.41 2.09 7.95 1.16 12.39 1.83.18.03.25-.13.04-.09.07-.26.02-.16-.13-.23c-2.97-1.39-10.1-6.84-12.11-11.38q-1.11-2.52.8-4.97.89-1.14-.22-.21c-1.65 1.38-2.29 3.44-1.52 5.44q.36.95.42 1.7.04.54-.51.58m35.82 10.76c9.34-.01 20.84-.49 27.64-7.87a.57.57 0 0 0-.22-.92c-8.63-3.29-17.79-3.33-27.43-3.32-9.63 0-18.79.05-27.43 3.35a.57.57 0 0 0-.21.91c6.8 7.38 18.3 7.85 27.65 7.85m-.14 10.6q-8 0-14.92-.8-.5-.06-.74-.49l-2.66-4.6q-.26-.44-.77-.41-12.19.65-22.5-2.46-.6-.18-.56.45l.1 1.32q.02.4.41.5 10.58 2.62 21.25 2.2a1.35 1.34-16.4 0 1 1.23.67l2.44 4.23a.59.58 77.7 0 0 .45.29q8.27.94 16.27.94t16.27-.94a.59.58-77.7 0 0 .45-.29l2.44-4.23a1.35 1.34 16.4 0 1 1.23-.67q10.67.42 21.25-2.2.39-.1.41-.5l.1-1.32q.04-.63-.56-.45-10.31 3.11-22.5 2.46-.51-.03-.77.41l-2.66 4.6q-.24.43-.74.49-6.92.8-14.92.8m-31.21.51q4.23.43 10.4.38.52 0 .7-.49.16-.43.12-.92-.04-.55-.6-.56-6.28-.11-10.41-.52T13.3 72.38q-.55-.09-.7.44-.13.47-.06.92.08.52.59.63 6.03 1.25 10.27 1.67m62.34.07q4.27-.39 10.37-1.6.51-.11.6-.63.07-.45-.06-.93-.14-.54-.7-.44-6.23 1.09-10.4 1.47t-10.5.43q-.56.01-.61.57-.04.49.12.92.17.5.7.51 6.21.09 10.48-.3"></path><path d="M34.74 55.76a.11.11 0 0 1-.11-.11v-.23a19.46.76.5 0 1 19.46-.59h.58a19.46.76.5 0 1 19.46.93v.23a.11.11 0 0 1-.12.11zM55.2 59.25q1.45.65 3.71.72.25.01.16.25l-.1.24q0 .01-.01.01H50.1q-1.46 0-.05-.4l1.99-.55a.37.35 63.2 0 0 .17-.57q-.16-.2-.46-.24-4.79-.61-9.5-.74a.05.04 0 0 1-.05-.04l.03-.27q.02-.22.23-.24 12.07-1.08 15.99-.55 5.68.77 11.11 1.22a.02.02 0 0 1 0 .04q-13.73.62-14.18.68-.87.13-.18.44"></path></g></g><g id="SvgjsG1015" featurekey="nameFeature-0" transform="matrix(1.414392898042803,0,0,1.414392898042803,-3.67742072558918,97.95086447471203)" fill="#0a0a0a"><path d="M12.16 40 l-9.56 0 l0 -28.48 l9.56 0 c8.04 0 14.6 6.4 14.6 14.24 s-6.56 14.24 -14.6 14.24 z M7.92 34.76 l4.24 0 c5.12 0 9.28 -4.04 9.28 -9 s-4.16 -9 -9.28 -9 l-4.24 0 l0 18 z M50.207 40 l-18.4 0 l0 -28.48 l18.76 0 l0 5.2 l-13.4 0 l0 4.2 l11.68 0 l0 5.32 l-11.68 0 l0 8.48 l13.04 0 l0 5.28 z M80.25399999999999 40 l-5.76 0 l-2.92 -7.68 l-9.44 0 l-2.96 7.68 l-5.72 0 l10.96 -28.48 l4.84 0 z M64.214 27.04 l5.28 0 l-2.64 -6.92 z M104.74099999999999 40 l-19.88 0 l0 -28.48 l5.36 0 l0 23.24 l14.52 0 l0 5.24 z M120.788 40.44 c-2 0 -3.96 -0.4 -5.8 -1.16 c-1.76 -0.76 -3.36 -1.84 -4.72 -3.2 c-1.4 -1.36 -2.48 -2.96 -3.2 -4.76 c-0.8 -1.84 -1.2 -3.76 -1.2 -5.8 c0 -8.2 6.72 -14.88 14.92 -14.88 c2.32 0 4.64 0.56 6.68 1.6 c2.04 1 3.88 2.56 5.24 4.4 l0.64 0.8 l-4.28 3.16 l-0.6 -0.8 c-1.8 -2.44 -4.6 -3.84 -7.68 -3.84 c-5.28 0 -9.6 4.28 -9.6 9.56 c0 5.32 4.32 9.64 9.6 9.64 c3.04 0 5.84 -1.4 7.68 -3.84 l0.6 -0.76 l4.24 3.12 l-0.64 0.8 c-1.4 1.88 -3.16 3.36 -5.24 4.4 c-2.04 1.04 -4.32 1.56 -6.64 1.56 z M160.915 40 l-5.36 0 l0 -13.8 l-11.56 0 l0 13.8 l-5.36 0 l0 -28.48 l5.36 0 l0 9.44 l11.56 0 l0 -9.44 l5.36 0 l0 28.48 z M186.322 40 l-18.4 0 l0 -28.48 l18.76 0 l0 5.2 l-13.4 0 l0 4.2 l11.68 0 l0 5.32 l-11.68 0 l0 8.48 l13.04 0 l0 5.28 z M205.049 40.44 c-2 0 -3.96 -0.4 -5.8 -1.16 c-1.76 -0.76 -3.36 -1.84 -4.72 -3.2 c-1.4 -1.36 -2.48 -2.96 -3.2 -4.76 c-0.8 -1.84 -1.2 -3.76 -1.2 -5.8 c0 -8.2 6.72 -14.88 14.92 -14.88 c2.32 0 4.64 0.56 6.68 1.6 c2.04 1 3.88 2.56 5.24 4.4 l0.64 0.8 l-4.28 3.16 l-0.6 -0.8 c-1.8 -2.44 -4.6 -3.84 -7.68 -3.84 c-5.28 0 -9.6 4.28 -9.6 9.56 c0 5.32 4.32 9.64 9.6 9.64 c3.04 0 5.84 -1.4 7.68 -3.84 l0.6 -0.76 l4.24 3.12 l-0.64 0.8 c-1.4 1.88 -3.16 3.36 -5.24 4.4 c-2.04 1.04 -4.32 1.56 -6.64 1.56 z M250.056 40 l-6.68 0 l-10.6 -14.88 l-4.56 4.32 l0 10.56 l-5.32 0 l0 -28.48 l5.32 0 l0 10.68 l11.36 -10.68 l7.68 0 l-10.44 9.88 z"></path></g><g id="SvgjsG1016" featurekey="sloganFeature-0" transform="matrix(0.8982070983406688,0,0,0.8982070983406688,34.19161363290832,160.27543131374182)" fill="#0a0a0a"><path d="M6.06 20.14 c-1.38 0 -2.7 -0.52 -3.56 -1.28 c-0.9 -0.78 -1.48 -1.82 -1.6 -2.84 l1.44 -0.4 c0.16 0.86 0.6 1.58 1.32 2.18 c0.7 0.6 1.5 0.9 2.4 0.9 c0.84 0 1.62 -0.2 2.24 -0.64 c0.62 -0.42 1.02 -1.14 1.02 -2.02 c0 -1.02 -0.54 -1.68 -1.22 -2.08 c-0.48 -0.28 -0.9 -0.4 -1.38 -0.5 l-1.92 -0.38 c-0.4 -0.08 -0.82 -0.22 -1.28 -0.42 c-0.46 -0.22 -0.86 -0.48 -1.2 -0.82 c-0.68 -0.66 -1.02 -1.5 -1.02 -2.52 c0 -0.8 0.22 -1.52 0.66 -2.14 c0.44 -0.64 1 -1.1 1.7 -1.44 c0.7 -0.32 1.44 -0.48 2.26 -0.48 c3.14 0 4.52 1.94 4.82 3.5 l-1.4 0.44 c-0.24 -1.04 -1.18 -2.52 -3.44 -2.52 c-1.56 -0.04 -3.08 1.06 -3.06 2.58 c0 1.12 0.7 2.02 2.12 2.3 l1.84 0.36 c1.24 0.24 2.2 0.66 2.84 1.28 c0.44 0.4 0.76 0.86 0.96 1.34 c0.2 0.5 0.3 0.94 0.3 1.34 c0.02 2.56 -2.14 4.32 -4.84 4.26 z M28.426 5.42 l2.2 0 l0 14.58 l-1.52 0 l0 -12.5 l0 0 l-5.42 12.5 l-1.38 0 l-5.38 -12.4 l0 0 l0 12.4 l-1.52 0 l0 -14.58 l2.18 0 l5.44 12.5 z M46.872 20 l-1.6 -3.72 l-7.94 0 l-1.6 3.72 l-1.56 0 l6.28 -14.58 l1.74 0 l6.3 14.58 l-1.62 0 z M44.692 14.879999999999999 l-3.4 -7.88 l-3.38 7.88 l6.78 0 z M62.69800000000001 20 l-1.86 0 l-4.32 -5.9 l-2.96 0 l0 5.9 l-1.54 0 l0 -14.58 l5.06 0 c1.72 0 3.1 0.48 3.9 1.28 s1.22 1.8 1.22 2.98 c0 2.46 -1.84 3.88 -4 4.16 z M53.55800000000001 6.859999999999999 l0 5.84 l3.38 0 c1.28 0 2.28 -0.36 2.86 -0.94 c0.56 -0.56 0.84 -1.26 0.84 -2.04 c0 -1.44 -0.88 -2.86 -3.66 -2.86 l-3.42 0 z M71.644 6.859999999999999 l0 13.14 l-1.52 0 l0 -13.14 l-4.88 0 l0 -1.44 l11.28 0 l0 1.44 l-4.88 0 z M93.296 20.16 c-2 0 -3.86 -0.78 -5.16 -2.06 c-0.64 -0.64 -1.16 -1.42 -1.54 -2.34 c-0.38 -0.94 -0.58 -1.94 -0.58 -3 c0 -1.08 0.2 -2.1 0.6 -3.04 s0.92 -1.74 1.58 -2.38 c1.34 -1.3 3.2 -2.08 5.16 -2.08 c1.54 0 2.94 0.46 3.88 1.12 c0.48 0.32 0.9 0.7 1.28 1.12 c0.74 0.86 1.14 1.72 1.36 2.56 l-1.46 0.52 c-0.12 -0.48 -0.32 -1 -0.86 -1.76 c-0.28 -0.38 -0.58 -0.72 -0.94 -1.02 s-0.82 -0.56 -1.4 -0.76 c-0.58 -0.22 -1.2 -0.32 -1.9 -0.32 c-1.52 0 -2.98 0.62 -4 1.64 c-1.04 1.04 -1.7 2.58 -1.7 4.3 c0 1.14 0.24 2.18 0.74 3.1 c0.48 0.92 1.16 1.64 2.06 2.16 c0.86 0.52 1.84 0.78 2.92 0.78 c1.34 0 2.5 -0.46 3.2 -1.02 c0.36 -0.28 0.68 -0.6 0.96 -1 c0.28 -0.38 0.48 -0.72 0.62 -1 c0.12 -0.28 0.24 -0.58 0.34 -0.88 l1.46 0.52 c-0.22 0.78 -0.6 1.58 -1.34 2.48 c-0.36 0.44 -0.8 0.84 -1.26 1.18 c-0.96 0.68 -2.42 1.18 -4.02 1.18 z M114.84200000000001 20 l-1.6 -3.72 l-7.94 0 l-1.6 3.72 l-1.56 0 l6.28 -14.58 l1.74 0 l6.3 14.58 l-1.62 0 z M112.662 14.879999999999999 l-3.4 -7.88 l-3.38 7.88 l6.78 0 z M130.668 20 l-1.86 0 l-4.32 -5.9 l-2.96 0 l0 5.9 l-1.54 0 l0 -14.58 l5.06 0 c1.72 0 3.1 0.48 3.9 1.28 s1.22 1.8 1.22 2.98 c0 2.46 -1.84 3.88 -4 4.16 z M121.528 6.859999999999999 l0 5.84 l3.38 0 c1.28 0 2.28 -0.36 2.86 -0.94 c0.56 -0.56 0.84 -1.26 0.84 -2.04 c0 -1.44 -0.88 -2.86 -3.66 -2.86 l-3.42 0 z M141.48 20 l0 -14.58 l4.34 0 c1.12 0 2.16 0.18 3.12 0.56 c0.96 0.36 1.78 0.88 2.44 1.52 c1.34 1.3 2.14 3.14 2.14 5.18 c0 1.06 -0.2 2.06 -0.6 2.98 s-0.96 1.68 -1.64 2.32 c-1.38 1.26 -3.34 2.02 -5.46 2.02 l-4.34 0 z M143.01999999999998 6.859999999999999 l0 11.7 l2.74 0 c1.22 0 2.3 -0.26 3.22 -0.76 c0.94 -0.5 1.68 -1.18 2.18 -2.06 c0.52 -0.88 0.78 -1.9 0.78 -3.02 c0 -1.66 -0.62 -3.14 -1.68 -4.2 c-1.04 -1.04 -2.66 -1.66 -4.5 -1.66 l-2.74 0 z M157.986 20 l0 -14.58 l9.12 0 l0 1.42 l-7.58 0 l0 5.04 l6.94 0 l0 1.42 l-6.94 0 l0 5.28 l7.66 0 l0 1.42 l-9.2 0 z M182.53199999999998 20 l-1.6 -3.72 l-7.94 0 l-1.6 3.72 l-1.56 0 l6.28 -14.58 l1.74 0 l6.3 14.58 l-1.62 0 z M180.352 14.879999999999999 l-3.4 -7.88 l-3.38 7.88 l6.78 0 z M187.678 20 l0 -14.58 l1.54 0 l0 13.14 l6.92 0 l0 1.44 l-8.46 0 z M217.36999999999998 20 l-1.6 -3.72 l-7.94 0 l-1.6 3.72 l-1.56 0 l6.28 -14.58 l1.74 0 l6.3 14.58 l-1.62 0 z M215.19 14.879999999999999 l-3.4 -7.88 l-3.38 7.88 l6.78 0 z M232.896 5.42 l1.5 0 l0 14.58 l-1.66 0 l-8.7 -12.4 l0 12.4 l-1.52 0 l0 -14.58 l1.78 0 l8.6 12.26 l0 -12.26 z M250.64199999999997 20 l-1.6 -3.72 l-7.94 0 l-1.6 3.72 l-1.56 0 l6.28 -14.58 l1.74 0 l6.3 14.58 l-1.62 0 z M248.462 14.879999999999999 l-3.4 -7.88 l-3.38 7.88 l6.78 0 z M255.78799999999998 20 l0 -14.58 l1.54 0 l0 13.14 l6.92 0 l0 1.44 l-8.46 0 z M272.99399999999997 12.4 l4.66 -6.98 l1.74 0 l-5.64 8.42 l0 6.16 l-1.56 0 l0 -6.14 l-5.64 -8.44 l1.84 0 z M287.37999999999994 20.14 c-1.38 0 -2.7 -0.52 -3.56 -1.28 c-0.9 -0.78 -1.48 -1.82 -1.6 -2.84 l1.44 -0.4 c0.16 0.86 0.6 1.58 1.32 2.18 c0.7 0.6 1.5 0.9 2.4 0.9 c0.84 0 1.62 -0.2 2.24 -0.64 c0.62 -0.42 1.02 -1.14 1.02 -2.02 c0 -1.02 -0.54 -1.68 -1.22 -2.08 c-0.48 -0.28 -0.9 -0.4 -1.38 -0.5 l-1.92 -0.38 c-0.4 -0.08 -0.82 -0.22 -1.28 -0.42 c-0.46 -0.22 -0.86 -0.48 -1.2 -0.82 c-0.68 -0.66 -1.02 -1.5 -1.02 -2.52 c0 -0.8 0.22 -1.52 0.66 -2.14 c0.44 -0.64 1 -1.1 1.7 -1.44 c0.7 -0.32 1.44 -0.48 2.26 -0.48 c3.14 0 4.52 1.94 4.82 3.5 l-1.4 0.44 c-0.24 -1.04 -1.18 -2.52 -3.44 -2.52 c-1.56 -0.04 -3.08 1.06 -3.06 2.58 c0 1.12 0.7 2.02 2.12 2.3 l1.84 0.36 c1.24 0.24 2.2 0.66 2.84 1.28 c0.44 0.4 0.76 0.86 0.96 1.34 c0.2 0.5 0.3 0.94 0.3 1.34 c0.02 2.56 -2.14 4.32 -4.84 4.26 z M296.72599999999994 20 l0 -14.58 l1.54 0 l0 14.58 l-1.54 0 z M307.792 20.14 c-1.38 0 -2.7 -0.52 -3.56 -1.28 c-0.9 -0.78 -1.48 -1.82 -1.6 -2.84 l1.44 -0.4 c0.16 0.86 0.6 1.58 1.32 2.18 c0.7 0.6 1.5 0.9 2.4 0.9 c0.84 0 1.62 -0.2 2.24 -0.64 c0.62 -0.42 1.02 -1.14 1.02 -2.02 c0 -1.02 -0.54 -1.68 -1.22 -2.08 c-0.48 -0.28 -0.9 -0.4 -1.38 -0.5 l-1.92 -0.38 c-0.4 -0.08 -0.82 -0.22 -1.28 -0.42 c-0.46 -0.22 -0.86 -0.48 -1.2 -0.82 c-0.68 -0.66 -1.02 -1.5 -1.02 -2.52 c0 -0.8 0.22 -1.52 0.66 -2.14 c0.44 -0.64 1 -1.1 1.7 -1.44 c0.7 -0.32 1.44 -0.48 2.26 -0.48 c3.14 0 4.52 1.94 4.82 3.5 l-1.4 0.44 c-0.24 -1.04 -1.18 -2.52 -3.44 -2.52 c-1.56 -0.04 -3.08 1.06 -3.06 2.58 c0 1.12 0.7 2.02 2.12 2.3 l1.84 0.36 c1.24 0.24 2.2 0.66 2.84 1.28 c0.44 0.4 0.76 0.86 0.96 1.34 c0.2 0.5 0.3 0.94 0.3 1.34 c0.02 2.56 -2.14 4.32 -4.84 4.26 z"></path></g></svg>